<?xml version="1.0" standalone="no"?>
<!DOCTYPE svg PUBLIC "-//W3C//DTD SVG 20010904//EN"
 "http://www.w3.org/TR/2001/REC-SVG-20010904/DTD/svg10.dtd">
<svg version="1.0" xmlns="http://www.w3.org/2000/svg"
 width="856.000000pt" height="856.000000pt" viewBox="0 0 856.000000 856.000000"
 preserveAspectRatio="xMidYMid meet">
<metadata>
Created by potrace 1.14, written by Peter Selinger 2001-2017
</metadata>
<g transform="translate(0.000000,856.000000) scale(0.100000,-0.100000)"
fill="#000000" stroke="none">
<path d="M4238 8536 c-133 -77 -281 -163 -328 -189 -30 -17 -58 -34 -61 -40
-3 -5 -9 -8 -13 -8 -3 1 -16 -5 -29 -12 -32 -20 -223 -130 -282 -162 -27 -16
-66 -38 -85 -50 -19 -12 -55 -33 -80 -47 -92 -52 -120 -68 -159 -92 -22 -15
-43 -26 -46 -26 -3 0 -22 -11 -43 -23 -20 -13 -57 -35 -82 -49 -25 -14 -61
-34 -80 -45 -277 -161 -424 -243 -430 -243 -5 0 -10 -3 -12 -8 -4 -10 -234
-142 -248 -142 -5 0 -10 -4 -10 -10 0 -5 -7 -10 -15 -10 -8 0 -15 -4 -15 -10
0 -5 -6 -10 -13 -10 -7 0 -29 -11 -48 -25 -20 -13 -39 -21 -43 -18 -3 4 -6 2
-6 -3 0 -5 -26 -22 -58 -39 -31 -16 -59 -32 -62 -35 -11 -11 -46 -31 -72 -41
-16 -6 -28 -15 -28 -20 0 -5 -4 -9 -8 -9 -8 0 -134 -70 -240 -133 -26 -15 -54
-31 -62 -34 -8 -4 -17 -9 -20 -12 -5 -6 -51 -32 -105 -59 -16 -9 -32 -18 -35
-21 -3 -3 -18 -13 -35 -21 -16 -8 -49 -27 -71 -42 -23 -16 -45 -28 -48 -28 -3
0 -51 -27 -106 -60 -55 -33 -105 -60 -110 -60 -6 0 -10 -4 -10 -10 0 -5 -5
-10 -11 -10 -6 0 -45 -20 -86 -45 -40 -25 -76 -45 -79 -45 -5 0 -86 -51 -94
-60 -3 -3 -9 -6 -15 -7 -5 -1 -48 -24 -95 -51 l-85 -49 -3 -2141 -2 -2141 94
-55 c52 -31 100 -56 105 -56 6 0 11 -4 11 -10 0 -5 4 -10 9 -10 4 0 80 -42
168 -94 88 -51 184 -106 214 -122 30 -16 56 -31 59 -34 3 -3 61 -38 130 -77
69 -39 181 -104 250 -143 69 -40 144 -84 168 -97 23 -13 93 -53 154 -89 61
-35 115 -64 119 -64 5 0 9 -4 9 -10 0 -5 4 -10 8 -10 8 0 42 -19 477 -270 127
-73 250 -144 275 -158 25 -14 109 -63 188 -108 79 -46 146 -84 149 -84 4 0 14
-6 22 -14 9 -7 48 -30 86 -51 39 -21 86 -48 105 -60 19 -12 67 -39 105 -60 39
-21 72 -41 75 -45 3 -4 10 -9 15 -11 10 -4 348 -196 385 -219 15 -10 82 -48
161 -92 24 -14 72 -42 106 -62 67 -39 66 -39 133 4 14 9 75 44 155 90 17 9
170 97 340 195 171 99 320 184 332 189 13 6 23 14 23 19 0 4 6 7 14 7 7 0 19
7 26 15 7 9 15 13 18 10 3 -3 12 1 21 9 9 7 43 28 76 46 33 17 65 35 70 40 6
4 30 19 55 33 80 44 244 139 275 158 17 10 37 22 45 26 8 4 58 32 110 63 52
31 102 59 110 63 8 4 33 18 55 32 22 14 54 32 70 41 53 27 89 48 123 72 17 13
32 21 32 18 0 -5 50 24 125 72 11 6 26 15 34 19 8 3 64 36 125 71 61 36 124
72 141 81 16 9 32 19 35 22 3 3 20 12 38 20 17 8 32 17 32 20 0 4 12 12 28 18
15 6 41 19 57 29 17 9 64 37 105 61 41 24 102 60 135 80 33 20 62 36 65 36 3
0 24 13 47 28 24 15 45 27 47 27 2 0 40 21 83 46 43 26 94 56 113 67 152 85
197 112 213 125 9 8 17 11 17 7 0 -4 8 -1 17 7 10 9 36 25 58 37 22 12 63 35
90 52 28 16 58 33 68 36 16 5 17 114 15 2151 l-3 2146 -65 38 c-36 21 -73 41
-82 44 -10 4 -18 10 -18 15 0 5 -5 9 -10 9 -8 0 -142 74 -200 111 -8 5 -71 41
-140 80 -69 40 -141 81 -160 92 -19 11 -55 31 -80 45 -25 14 -62 36 -82 49
-21 12 -42 23 -48 23 -5 0 -10 5 -10 11 0 5 -4 8 -9 4 -5 -3 -12 -1 -15 4 -3
5 -52 35 -108 67 -57 32 -112 64 -123 71 -11 7 -27 15 -35 19 -8 5 -40 24 -70
43 -30 19 -57 35 -60 34 -3 0 -22 11 -42 23 -21 13 -42 24 -47 24 -5 0 -11 3
-13 8 -1 4 -28 20 -58 36 -30 17 -78 45 -107 63 -29 18 -54 33 -57 33 -2 0
-39 20 -80 45 -42 25 -81 45 -86 45 -6 0 -10 3 -10 8 0 4 -10 12 -23 18 -35
16 -111 58 -117 64 -3 3 -87 52 -188 109 -100 57 -185 107 -188 112 -3 5 -10
7 -15 4 -5 -4 -9 -1 -9 4 0 6 -4 11 -10 11 -5 0 -39 18 -75 40 -36 22 -70 40
-75 40 -6 0 -10 5 -10 10 0 6 -5 10 -11 10 -6 0 -45 20 -86 45 -40 25 -76 45
-79 45 -2 0 -23 11 -45 26 -47 29 -80 49 -204 118 -49 27 -91 54 -93 58 -2 4
-7 8 -12 8 -8 0 -171 90 -180 100 -5 5 -56 33 -125 69 -16 9 -31 19 -33 24 -2
4 -7 7 -11 7 -7 0 -94 49 -226 127 -72 42 -77 43 -117 19z"/>
</g>
</svg>
