<?xml version="1.0" encoding="UTF-8"?>
<svg id="Layer_2" data-name="Layer 2" xmlns="http://www.w3.org/2000/svg" viewBox="0 0 87.6 101.15">
  <defs>
    <style>
      .cls-1 {
        fill: none;
        stroke: #231f20;
        stroke-miterlimit: 10;
      }

      .cls-2 {
        fill: #231f20;
      }
    </style>
  </defs>
  <g id="Layer_1-2" data-name="Layer 1">
    <polygon class="cls-1" points="87.1 25.58 43.8 .58 .5 25.58 .5 75.58 43.8 100.58 87.1 75.58 87.1 25.58"/>
    <path class="cls-2" d="M45.36,5.42l7.23,4.27c4.74,2.66,7.85,4.31,9.31,5.05,1.31,.65,6.84,3.19,16.6,7.39l.46,.47v1.9l-.46,.09c-2.66-1-4.71-1.75-6.16-2.23-1.45-.48-2.5-.7-3.15-.64-.65,.06-1.09,.67-1.3,1.83-.21,1.16-.32,2.86-.32,5.07l-.12,10.6v21.41l.06,9c.04,3.47,.15,5.66,.35,6.58,.19,.92,.47,1.45,.84,1.6,.37,.15,1.07,.06,2.11-.25,1.04-.32,3.6-1.45,7.69-3.38h.46v1.9l-.46,.55c-.19,.1-3.59,1.86-10.18,5.37-2.74,1.52-4.88,2.75-6.42,3.66-1.2,.72-6.71,4.26-16.54,11.01l-.46-.2v-3.23l.46-.68c3.59-2.36,5.97-4,7.17-4.93,1.19-.92,1.99-1.67,2.4-2.26,.4-.58,.73-1.51,.98-2.79,.25-1.27,.4-3.87,.44-7.81l.06-11.6v-25.4l-.12-10.73c-.04-4.19-.14-6.93-.32-8.21-.17-1.29-.44-2.22-.81-2.8-.37-.58-1.07-1.25-2.11-2.01-1.04-.77-3.61-2.25-7.69-4.5l-.46-.69v-3.23l.46-.19Z"/>
    <path class="cls-2" d="M5.09,23.97c3.98-1.46,6.21-2.31,6.7-2.51,.52-.22,2.76-1.31,6.72-3.33l.19,.23v2.27l-.19,.4c-1.08,.5-1.91,.93-2.49,1.29-.59,.35-1.01,.74-1.28,1.15-.27,.42-.44,1.21-.53,2.39-.09,1.17-.13,2.78-.13,4.81l-.05,9.74v5.92c3.42,.02,6.66-.03,9.72-.17,4.18-.19,7.37-.45,9.55-.78v-7.78l-.05-10.82c-.02-4.21-.06-6.91-.14-8.1-.08-1.19-.19-1.95-.33-2.3-.14-.34-.42-.55-.84-.61-.42-.06-1.47,.21-3.14,.82l-.16-.29v-2.61l.16-.45c4-1.7,6.23-2.68,6.72-2.92,.53-.27,2.77-1.58,6.72-3.99l.19,.34v3.12l-.19,.53c-1.09,.61-1.93,1.14-2.52,1.58-.58,.44-1.01,.94-1.28,1.49-.27,.56-.44,1.65-.52,3.27-.08,1.63-.12,3.85-.14,6.69l-.05,13.55v27.25l.05,11.49c.02,4.44,.06,7.33,.14,8.66,.08,1.33,.19,2.25,.34,2.76,.15,.51,.43,1.01,.84,1.51,.41,.51,1.46,1.26,3.12,2.28l.19,.47v3.12l-.19,.39c-4-2.54-6.24-3.91-6.72-4.17-.5-.27-2.74-1.31-6.72-3.11l-.16-.5v-2.61l.16-.24c1.47,.56,2.44,.84,2.93,.85,.48,.01,.8-.12,.96-.4,.15-.28,.29-.96,.4-2.06,.11-1.1,.16-3.63,.16-7.59l.05-11.7v-12.67c-4.62-.28-7.86-.43-9.72-.45-1.9-.02-5.09,.03-9.55,.14v9.64l.02,8.26c.02,3.19,.06,5.27,.14,6.23,.08,.96,.19,1.63,.34,2,.15,.38,.44,.76,.86,1.15,.42,.4,1.46,1.01,3.12,1.86l.19,.36v2.27l-.19,.27c-3.98-2.13-6.22-3.28-6.72-3.51-.48-.22-2.72-1.13-6.7-2.7l-.19-.37v-1.83l.19-.15c1.45,.49,2.42,.75,2.9,.79,.48,.04,.81-.03,.97-.21,.16-.18,.29-.66,.4-1.43,.1-.78,.16-2.57,.18-5.38l.02-8.32v-18.28l-.05-7.69c-.02-2.99-.06-4.91-.13-5.75-.07-.84-.18-1.38-.33-1.61-.15-.23-.43-.36-.85-.38-.42-.02-1.46,.23-3.12,.76l-.19-.19v-1.83l.19-.33Z"/>
  </g>
</svg>