<?xml version="1.0" encoding="UTF-8"?>
<svg id="Layer_2" data-name="Layer 2" xmlns="http://www.w3.org/2000/svg" viewBox="0 0 92.6 106.93">
  <defs>
    <style>
      .cls-1 {
        fill: #fff;
      }

      .cls-2 {
        stroke: #ffdd96;
        stroke-miterlimit: 10;
      }

      .cls-2, .cls-3 {
        fill: #231f20;
      }
    </style>
  </defs>
  <g id="Layer_1-2" data-name="Layer 1">
    <g>
      <polygon class="cls-1" points="1.5 79.33 1.5 27.6 46.3 1.73 91.1 27.6 91.1 79.33 46.3 105.2 1.5 79.33"/>
      <path class="cls-3" d="M46.3,3.46l43.3,25v50l-43.3,25L3,78.46V28.46L46.3,3.46m0-3.46l-1.5,.87L1.5,25.87l-1.5,.87v53.46l1.5,.87,43.3,25,1.5,.87,1.5-.87,43.3-25,1.5-.87V26.73l-1.5-.87L47.8,.87l-1.5-.87h0Z"/>
    </g>
    <path class="cls-2" d="M48.26,9.31l7.23,4.27c4.74,2.66,7.85,4.31,9.31,5.05,1.31,.65,6.84,3.19,16.6,7.39l.46,.47v1.9l-.46,.09c-2.66-1-4.71-1.75-6.16-2.23-1.45-.48-2.5-.7-3.15-.64-.65,.06-1.09,.67-1.3,1.83-.21,1.16-.32,2.86-.32,5.07l-.12,10.6v21.41l.06,9c.04,3.47,.15,5.66,.35,6.58,.19,.92,.47,1.45,.84,1.6,.37,.15,1.07,.06,2.11-.25,1.04-.31,3.6-1.45,7.69-3.38h.46v1.9l-.46,.55c-.19,.1-3.59,1.86-10.18,5.37-2.74,1.52-4.88,2.75-6.42,3.66-1.2,.72-6.71,4.26-16.54,11.01l-.46-.2v-3.23l.46-.68c3.59-2.36,5.97-4,7.17-4.93,1.19-.92,1.99-1.67,2.4-2.26,.4-.58,.73-1.51,.98-2.79,.25-1.27,.4-3.87,.44-7.81l.06-11.6v-25.4l-.12-10.73c-.04-4.19-.14-6.93-.32-8.21-.17-1.29-.44-2.22-.81-2.8-.37-.58-1.07-1.25-2.11-2.01-1.04-.77-3.61-2.25-7.69-4.5l-.46-.69v-3.23l.46-.19Z"/>
    <path class="cls-2" d="M7.64,27.1c3.96-1.45,6.18-2.29,6.66-2.5,.51-.22,2.74-1.31,6.69-3.31l.19,.23v2.26l-.19,.39c-1.07,.5-1.9,.93-2.48,1.28-.58,.35-1.01,.73-1.27,1.15-.26,.41-.44,1.21-.52,2.38-.09,1.17-.13,2.76-.13,4.78l-.05,9.7v5.89c3.4,.02,6.62-.03,9.67-.17,4.16-.19,7.33-.45,9.51-.78v-7.74l-.05-10.76c-.02-4.19-.06-6.88-.14-8.06-.08-1.18-.19-1.94-.33-2.28-.14-.34-.42-.55-.84-.61-.42-.06-1.46,.21-3.12,.81l-.16-.29v-2.6l.16-.44c3.98-1.69,6.21-2.67,6.69-2.91,.53-.27,2.76-1.57,6.69-3.97l.19,.33v3.11l-.19,.52c-1.09,.61-1.92,1.13-2.51,1.57-.58,.44-1.01,.93-1.27,1.49-.26,.55-.44,1.64-.51,3.26-.08,1.62-.12,3.83-.14,6.65l-.05,13.49v27.12l.05,11.44c.02,4.42,.06,7.29,.14,8.62,.08,1.33,.19,2.24,.34,2.75,.15,.5,.43,1,.84,1.51,.41,.5,1.45,1.26,3.11,2.27l.19,.47v3.11l-.19,.39c-3.98-2.53-6.21-3.89-6.69-4.15-.5-.27-2.73-1.3-6.69-3.09l-.16-.5v-2.6l.16-.24c1.46,.55,2.43,.84,2.91,.85,.48,.01,.8-.12,.96-.39,.15-.28,.29-.96,.39-2.05,.11-1.09,.16-3.61,.16-7.55l.05-11.65v-12.6c-4.6-.28-7.82-.42-9.67-.45-1.9-.02-5.06,.03-9.51,.14v9.6l.02,8.21c.02,3.18,.06,5.24,.14,6.2,.08,.96,.19,1.63,.34,2,.15,.37,.43,.75,.85,1.14,.42,.39,1.45,1.01,3.1,1.85l.19,.35v2.26l-.19,.27c-3.96-2.12-6.19-3.26-6.69-3.49-.48-.22-2.7-1.12-6.66-2.68l-.19-.37v-1.82l.19-.14c1.44,.48,2.41,.75,2.89,.79,.48,.04,.8-.03,.97-.21,.16-.18,.29-.66,.4-1.43,.1-.77,.16-2.56,.17-5.35l.02-8.28v-18.19l-.05-7.65c-.02-2.98-.06-4.89-.13-5.73-.07-.84-.18-1.37-.33-1.6-.15-.23-.43-.36-.85-.38-.42-.02-1.45,.23-3.1,.75l-.19-.18v-1.82l.19-.33Z"/>
  </g>
</svg>