<?xml version="1.0" encoding="utf-8"?>
<!-- Generator: Adobe Illustrator 27.0.0, SVG Export Plug-In . SVG Version: 6.00 Build 0)  -->
<svg version="1.1" id="Layer_1" xmlns="http://www.w3.org/2000/svg" xmlns:xlink="http://www.w3.org/1999/xlink" x="0px" y="0px"
	 viewBox="0 0 612 792" style="enable-background:new 0 0 612 792;" xml:space="preserve">
<style type="text/css">
	.st0{fill:none;stroke:#000000;stroke-miterlimit:10;}
</style>
<polygon class="st0" points="292.09,242.05 248.79,217.05 205.49,242.05 205.49,292.05 248.79,317.05 292.09,292.05 "/>
<g>
	<g>
		<path d="M250.35,221.89l7.23,4.27c4.74,2.66,7.85,4.31,9.31,5.05c1.31,0.65,6.84,3.19,16.6,7.39l0.46,0.47v1.9l-0.46,0.09
			c-2.66-1-4.71-1.75-6.16-2.23c-1.45-0.48-2.5-0.7-3.15-0.64c-0.65,0.06-1.09,0.67-1.3,1.83c-0.21,1.16-0.32,2.86-0.32,5.07
			l-0.12,10.6v21.41l0.06,9c0.04,3.47,0.15,5.66,0.35,6.58c0.19,0.92,0.47,1.45,0.84,1.6c0.37,0.15,1.07,0.06,2.11-0.25
			c1.04-0.32,3.6-1.45,7.69-3.38l0.46,0v1.9l-0.46,0.55c-0.19,0.1-3.59,1.86-10.18,5.37c-2.74,1.52-4.88,2.75-6.42,3.66
			c-1.2,0.72-6.71,4.26-16.54,11.01l-0.46-0.2v-3.23l0.46-0.68c3.59-2.36,5.97-4,7.17-4.93c1.19-0.92,1.99-1.67,2.4-2.26
			c0.4-0.58,0.73-1.51,0.98-2.79c0.25-1.27,0.4-3.87,0.44-7.81l0.06-11.6v-25.4l-0.12-10.73c-0.04-4.19-0.14-6.93-0.32-8.21
			c-0.17-1.29-0.44-2.22-0.81-2.8c-0.37-0.58-1.07-1.25-2.11-2.01c-1.04-0.77-3.61-2.25-7.69-4.5l-0.46-0.69v-3.23L250.35,221.89z"
			/>
	</g>
</g>
<g>
	<g>
		<path d="M210.08,240.44c3.98-1.46,6.21-2.31,6.7-2.51c0.52-0.22,2.76-1.31,6.72-3.33l0.19,0.23v2.27l-0.19,0.4
			c-1.08,0.5-1.91,0.93-2.49,1.29c-0.59,0.35-1.01,0.74-1.28,1.15c-0.27,0.42-0.44,1.21-0.53,2.39c-0.09,1.17-0.13,2.78-0.13,4.81
			l-0.05,9.74v5.92c3.42,0.02,6.66-0.03,9.72-0.17c4.18-0.19,7.37-0.45,9.55-0.78v-7.78l-0.05-10.82c-0.02-4.21-0.06-6.91-0.14-8.1
			c-0.08-1.19-0.19-1.95-0.33-2.3c-0.14-0.34-0.42-0.55-0.84-0.61c-0.42-0.06-1.47,0.21-3.14,0.82l-0.16-0.29v-2.61l0.16-0.45
			c4-1.7,6.23-2.68,6.72-2.92c0.53-0.27,2.77-1.58,6.72-3.99l0.19,0.34v3.12l-0.19,0.53c-1.09,0.61-1.93,1.14-2.52,1.58
			c-0.58,0.44-1.01,0.94-1.28,1.49c-0.27,0.56-0.44,1.65-0.52,3.27c-0.08,1.63-0.12,3.85-0.14,6.69l-0.05,13.55v27.25l0.05,11.49
			c0.02,4.44,0.06,7.33,0.14,8.66c0.08,1.33,0.19,2.25,0.34,2.76c0.15,0.51,0.43,1.01,0.84,1.51c0.41,0.51,1.46,1.26,3.12,2.28
			l0.19,0.47v3.12l-0.19,0.39c-4-2.54-6.24-3.91-6.72-4.17c-0.5-0.27-2.74-1.31-6.72-3.11l-0.16-0.5v-2.61l0.16-0.24
			c1.47,0.56,2.44,0.84,2.93,0.85c0.48,0.01,0.8-0.12,0.96-0.4c0.15-0.28,0.29-0.96,0.4-2.06c0.11-1.1,0.16-3.63,0.16-7.59
			l0.05-11.7v-12.67c-4.62-0.28-7.86-0.43-9.72-0.45c-1.9-0.02-5.09,0.03-9.55,0.14v9.64l0.02,8.26c0.02,3.19,0.06,5.27,0.14,6.23
			c0.08,0.96,0.19,1.63,0.34,2c0.15,0.38,0.44,0.76,0.86,1.15c0.42,0.4,1.46,1.01,3.12,1.86l0.19,0.36v2.27l-0.19,0.27
			c-3.98-2.13-6.22-3.28-6.72-3.51c-0.48-0.22-2.72-1.13-6.7-2.7l-0.19-0.37v-1.83l0.19-0.15c1.45,0.49,2.42,0.75,2.9,0.79
			c0.48,0.04,0.81-0.03,0.97-0.21c0.16-0.18,0.29-0.66,0.4-1.43c0.1-0.78,0.16-2.57,0.18-5.38l0.02-8.32v-18.28l-0.05-7.69
			c-0.02-2.99-0.06-4.91-0.13-5.75c-0.07-0.84-0.18-1.38-0.33-1.61c-0.15-0.23-0.43-0.36-0.85-0.38c-0.42-0.02-1.46,0.23-3.12,0.76
			l-0.19-0.19v-1.83L210.08,240.44z"/>
	</g>
</g>
</svg>
